# xmcd
#
# Track frame offsets: 
#        150
#        21744
#        45718
#        66001
#        85963
#        107106
#        128053
#        152664
#        173684
#        195180
#        216070
#
# Disc length: 3171 seconds
#
# Revision: 0
# Processed by: cddbd v1.5.2PL0 Copyright (c) Steve Scherf et al.
# Submitted via: ExactAudioCopy v1.3
#
DISCID=8f0c610b
DTITLE=Cliff Stevens - Cliff Stevens Live In Germany
DYEAR=2017
DGENRE=Blues Rock
TTITLE0=I Know
TTITLE1=Don't You Say
TTITLE2=I Want You To Tell Me
TTITLE3=Finger Swinging
TTITLE4=Need You To Love Me
TTITLE5=Crying My Heart Out
TTITLE6=Running
TTITLE7=Price You Pay
TTITLE8=Don't Walk Away
TTITLE9=Finger Express
TTITLE10=Said The Wrong Thing
EXTD=
EXTT0=
EXTT1=
EXTT2=
EXTT3=
EXTT4=
EXTT5=
EXTT6=
EXTT7=
EXTT8=
EXTT9=
EXTT10=
PLAYORDER=
